<svg xmlns="http://www.w3.org/2000/svg" width="932.462" height="513.471" version="1.1" id="SVGRoot"><g id="g9219" transform="matrix(1.60168 0 0 1.60168 -322.979 300.384)"><g transform="translate(-41.207 -9.464) scale(.41674)" id="g3892" fill="#000" font-style="normal" font-variant="normal" font-weight="400" font-stretch="normal" font-size="239.958" font-family="Rye" letter-spacing="0" word-spacing="0" writing-mode="lr-tb" text-anchor="start" fill-opacity="1" stroke="none" stroke-width="5.938"><path d="M672.855 327.889q-10.662 14.06-31.986 14.06-26.011 0-39.017-15.584-5.624-6.678-7.733-14.88-1.171-4.92-4.1-7.498-2.93-2.695-7.265-4.804 8.436-3.867 12.068-14.529 3.867-11.248 12.889-16.286 9.724-5.273 21.441-5.507 11.717-.351 17.34-.82 5.625-.469 9.96-1.523 8.084-1.875 12.654-6.913V236.03q0-11.6-4.804-16.99-4.687-5.389-14.411-5.389-9.608 0-14.295 3.632-4.57 3.515-4.57 9.49 0 9.14 9.374 8.905-1.875 9.14-9.842 9.14-2.343 0-4.57-.82v.35q0 3.047 2.813 3.867-2.93 4.453-9.842 4.335-6.913-.117-10.78-7.381-1.757.469-4.1.469-2.227 0-5.039-1.524-2.695-1.523-4.335-4.218 5.858-3.515 7.147-10.896 1.406-9.022 14.412-18.278 15.7-11.131 40.07-11.131 40.423 0 49.328 24.84 2.93 8.318 2.93 19.683v9.49q0 5.742 2.811 9.374 2.93 3.632 9.842 5.976-7.381 3.398-9.49 6.092-3.164 4.101-3.164 9.374v35.15q3.398 8.787 9.725 8.787 3.984 0 6.561-1.992 1.64 2.227 1.64 5.624 0 3.281-3.397 6.328-3.28 3.046-9.96 3.046-6.678 0-12.419-3.75-5.038 3.75-9.022 3.75-3.866 0-6.795-.82-2.813-.703-5.273-2.344-5.507-3.632-6.796-10.31zm7.382-19.919q6.796-2.695 7.147-25.894v-11.248q0-6.327-.117-10.779 0-4.57-.117-8.67-.469-14.763-2.695-17.575-2.226-2.93-4.218-3.867zm-43.235-8.319q0 4.921 1.055 9.608 1.054 4.687 3.163 8.202 4.687 7.381 13.24 7.381 6.444 0 10.662-5.272 3.984-5.156 3.984-13.24v-38.196q-7.499 4.335-19.215 5.975-12.889 1.992-12.889 25.542zm-17.575 26.363q1.172-.82 1.172-2.109 0-1.758-1.64-4.921-5.859-10.78-5.859-17.692 0-6.913.469-9.96.586-3.046 1.406-5.155.937-2.226 1.992-3.866 1.171-1.64 1.992-2.93 1.523-2.694 1.523-3.632 0-1.054-1.055-1.757-4.804 2.226-7.03 5.272-3.983 5.39-5.858 13.943-.469 2.46-8.202 5.976 7.499 3.398 8.202 5.975 3.984 13.943 12.888 20.856z" style="line-height:1.25;-inkscape-font-specification:'Rye, Normal';font-variant-ligatures:normal;font-variant-caps:normal;font-variant-numeric:normal;font-feature-settings:normal;text-align:start" id="path8799"/><path d="M850.949 341.363q-16.52 0-17.81-22.848-5.975 10.78-16.169 17.107-10.076 6.327-21.793 6.327-11.6 0-18.863-3.164-7.265-3.163-12.069-9.139-9.373-11.717-9.373-33.275v-7.265q0-13.59-14.294-20.152 8.436-4.101 10.78-6.913 3.514-4.335 3.514-9.725V236.5q0-9.96-6.796-10.78-1.991-.234-5.038-.234-3.046 0-5.624 1.992-1.64-2.226-1.64-4.57 0-2.46 1.172-5.39 1.288-3.046 3.866-5.74 6.093-6.328 14.177-6.328 8.085 0 15.232 2.695 5.155-7.381 12.185-7.381 12.068 0 12.068 12.654v76.275q0 22.262 10.311 26.714 3.28 1.406 7.264 1.406 4.101 0 7.382-1.64 3.28-1.758 5.741-4.687 4.57-5.74 5.858-15.7v-59.286q0-13.357-10.896-13.357-3.984 0-6.561 1.991-1.64-2.226-1.64-4.57 0-2.46 1.171-5.037 1.289-2.695 3.866-4.921 5.742-5.156 13.943-5.156 8.32 0 15.466 2.695 5.156-7.381 12.186-7.381 12.068 0 12.068 12.654v38.9q0 5.389 2.109 7.966 3.75 4.57 12.185 8.67-14.294 6.562-14.294 20.153v30.23q2.226 9.021 9.725 9.021 3.983 0 6.561-1.992 1.64 2.227 1.64 5.624 0 3.281-3.397 6.328-3.281 3.046-10.428 3.046-7.03 0-13.357-3.75-4.687 3.75-10.428 3.75zm-8.788-33.393q6.796-2.695 7.148-25.894v-11.248q0-6.327-.118-10.779 0-4.57-.117-8.67-.468-14.763-2.695-17.575-2.226-2.93-4.218-3.867zm-70.065-39.016l.351-15.466q0-10.428-.703-13.826-1.992-8.905-5.624-9.725v7.616q0 19.801-.937 23.316-.82 3.398-2.812 5.156-1.875 1.64-5.624 2.929 7.03 2.46 7.967 5.975 1.406 5.624 1.406 25.425v7.616q3.515-.82 5.741-10.428.586-2.694.586-13.122z" style="line-height:1.25;-inkscape-font-specification:'Rye, Normal';font-variant-ligatures:normal;font-variant-caps:normal;font-variant-numeric:normal;font-feature-settings:normal;text-align:start" id="path8801"/><path d="M979.13 321.913q2.225-2.343 3.514-5.858 1.29-3.632 1.29-7.499 0-3.984-.47-7.264.82-1.758 4.453-2.695 3.632-1.055 4.804-1.055 4.452 0 7.147 3.398 2.695 3.281 2.695 9.256 0 5.859-3.515 11.6-3.398 5.741-9.14 10.193-12.77 9.96-29.76 9.96-32.338 0-42.883-24.488-3.866-9.022-3.866-22.613v-14.295q0-5.507-12.068-11.6 12.068-6.912 12.068-18.629V236.5q0-13.357-10.897-13.357-3.983 0-6.561 1.991-1.64-2.226-1.64-4.57 0-2.46.82-5.272.937-2.929 3.163-5.272 5.624-6.093 17.458-4.218v-3.75q0-12.302 6.21-21.675 5.507-8.436 9.725-8.436 4.335 0 6.678 2.929 1.992-9.256 5.273-13.357 3.28-4.101 9.373-4.101v48.859h38.08q.937 1.874.937 6.327 0 4.335-3.398 7.03-3.398 2.577-8.202 2.577h-27.417v79.322q0 20.387 9.256 23.902 2.695.937 5.741.937 3.164 0 5.976-1.054 2.93-1.172 5.155-3.398zm-54.483-13.943q5.507-3.515 6.21-14.646.468-7.967.468-12.42.117-4.452.117-7.146.118-2.812.118-4.336v-4.686q0-3.398-.118-8.67 0-5.39-.117-11.6 0-6.327-.234-12.068-.352-13.826-1.055-16.872-1.406-6.796-5.39-9.374v36.556q0 16.287-.585 17.224-.469.937-.82 2.226-1.055 3.515-7.968 5.858 7.03 2.46 7.968 5.976 1.406 5.624 1.406 26.362z" style="line-height:1.25;-inkscape-font-specification:'Rye, Normal';font-variant-ligatures:normal;font-variant-caps:normal;font-variant-numeric:normal;font-feature-settings:normal;text-align:start" id="path8803"/><path d="M1035.37 325.897q-7.382-7.499-11.717-17.81-4.218-10.31-5.156-17.692-.937-7.381-1.64-9.49-.586-2.11-2.109-3.984-3.046-3.866-11.13-7.85 10.193-4.57 13.005-14.646.82-2.812 1.288-5.624 3.047-20.973 20.27-35.033 17.224-14.177 40.189-14.177 23.902 0 41.125 14.294 16.755 13.943 19.801 34.916 1.055 7.382 3.164 10.78 3.984 6.21 11.13 9.49-7.967 3.866-10.31 6.796-3.163 4.1-3.984 9.724-3.749 27.652-19.215 42.063-15.466 14.295-41.243 14.295-27.651 0-43.469-16.052zm63.152-80.494q0-29.291-19.918-29.291t-19.918 29.291v51.905q0 28.12 19.8 28.12 20.036 0 20.036-28.12zm11.248 62.567q5.859-2.226 6.445-15.349.703-13.122.703-19.45 0-6.443-.118-10.661 0-4.336-.117-8.905-.468-17.106-2.695-19.918-2.226-2.812-4.218-3.75zm-70.183 0q1.64-1.289 1.64-2.929 0-2.578-1.054-6.561-4.804-18.395-4.804-25.543 0-7.264.47-11.248.468-4.1 1.17-8.201 1.524-7.968 3.164-14.06 1.055-3.984 1.055-5.39 0-2.812-1.64-4.1-4.922 5.858-7.5 15.7-2.577 9.842-4.217 17.34-.586 3.164-6.913 6.093 6.327 2.93 6.913 5.858 4.335 19.801 7.147 25.191 2.812 5.39 4.57 7.85z" style="line-height:1.25;-inkscape-font-specification:'Rye, Normal';font-variant-ligatures:normal;font-variant-caps:normal;font-variant-numeric:normal;font-feature-settings:normal;text-align:start" id="path8805"/><path d="M1191.553 337.613q-5.39 3.75-12.303 3.75-6.796 0-10.193-3.046-3.281-3.047-3.281-5.859 0-3.866 1.64-6.093 2.578 1.992 6.562 1.992 6.795 0 9.724-7.85v-35.97q0-5.155-2.109-7.499-3.28-3.632-12.185-7.967 8.202-3.75 10.428-5.976 3.866-3.866 3.866-9.49v-66.316q0-13.358-10.896-13.358-3.984 0-6.561 1.992-1.64-2.226-1.64-4.57 0-2.46 1.171-4.686 1.289-2.226 3.866-4.1 5.507-3.984 13.943-3.984t13.123 1.054q6.444-8.084 14.529-8.084 12.068 0 12.068 12.654v98.068l33.861-31.283q7.733-7.968 7.733-11.483 0-3.515-4.452-3.515-4.453 0-8.32 2.227-1.288-2.11-1.288-5.39 0-3.398 3.515-6.561 3.515-3.164 9.96-3.164 6.443 0 11.364 3.984 4.57-3.984 9.96-3.984 5.39 0 9.373 3.164 3.984-3.164 9.373-3.164 5.39 0 8.905 2.812 3.632 2.812 3.632 7.499 0 4.335-1.172 5.975-3.163-3.163-7.85-3.163-4.57 0-7.498 1.406-2.812 1.289-6.21 3.866-3.398 2.46-7.499 6.093l-19.45 16.872 35.736 70.3q3.281 7.03 5.741 10.31 2.578 3.281 6.445 3.281 3.983 0 6.561-1.992 1.64 2.227 1.64 5.624 0 3.281-3.398 6.328-3.28 3.046-10.545 3.046-7.264 0-14.06-3.984-5.506 3.984-12.185 3.984-6.561 0-11.482-3.515-4.57 3.515-10.31 3.515-5.625 0-9.023-2.695-3.398-2.812-3.398-7.03t1.758-5.741q4.57 3.515 9.139 1.171 1.64-.82 2.93-3.163l-24.84-54.014-14.646 12.771v39.603q2.226 5.74 7.381 5.74 2.695 0 5.39-2.108 1.758 1.523 1.758 5.858 0 4.218-3.398 6.913-3.398 2.695-9.14 2.695-5.74 0-10.31-3.515-4.804 3.515-11.365 3.515t-12.068-3.75zm9.842-71.12l.117-15.583v-22.965q0-21.793-.82-25.425-1.64-7.147-5.976-9.959v39.485q0 24.254-.586 27.066-.468 2.695-.82 3.983-1.054 3.633-7.967 5.976 7.03 2.46 7.967 5.858 1.406 5.624 1.406 25.308v7.616q6.21-3.984 6.562-21.09v-7.03q.117-3.515.117-6.21zm67.722 41.477q1.523-1.992 1.523-5.39 0-3.397-.586-6.092-.468-2.695-1.288-5.39-1.524-4.335-4.453-10.31l-11.13-24.137-5.273 4.687z" style="line-height:1.25;-inkscape-font-specification:'Rye, Normal';font-variant-ligatures:normal;font-variant-caps:normal;font-variant-numeric:normal;font-feature-settings:normal;text-align:start" id="path8807"/><path d="M1433.62 303.635q2.577-4.92 9.49-4.92 4.687 0 7.264 3.866 2.11 3.046 2.11 7.498 0 4.335-2.227 8.788-2.226 4.452-6.093 8.084-3.866 3.632-8.904 6.444-4.921 2.813-10.545 4.687-11.6 3.867-24.137 3.867t-23.55-4.101q-10.897-4.218-18.747-11.717-15.349-14.763-18.747-40.54-.82-5.74-2.694-8.201-3.515-4.335-11.6-8.32 10.194-4.569 13.006-14.645.82-2.812 1.288-5.624 2.93-20.621 20.856-35.15 17.34-14.06 38.782-14.06 22.262 0 38.548 15.7 16.872 16.17 16.872 39.72 0 .82-.117 1.64 0 .82.117 1.523.235 1.524 1.875 1.758 2.109 2.695 2.109 5.741 0 7.03-7.499 8.319-1.874.351-5.858.937l-66.082 10.545v11.248q0 13.592 8.202 21.559 7.733 7.616 19.566 7.616 12.537 0 20.153-5.156 7.147-4.92 7.147-12.888 0-1.875-.586-4.218zm-20.505-37.845v-32.806q0-7.733-3.046-11.366-5.39-6.21-10.662-6.21-5.273 0-8.788 1.64-3.515 1.524-6.093 4.922-5.39 7.147-5.39 22.262v27.065zm17.34-2.929v-3.632q0-21.793-3.631-26.363-1.64-1.991-3.633-2.929v34.096zm-70.416 45.11q1.64-1.29 1.64-2.93 0-2.578-1.055-6.561-4.803-18.395-4.803-25.543 0-7.264.468-11.248.469-4.1 1.29-8.201 1.405-7.968 3.045-14.06 1.055-3.984 1.055-5.39 0-2.812-1.64-4.1-4.921 5.858-7.5 15.7-2.577 9.842-4.217 17.34-.586 3.164-6.913 6.093 6.327 2.93 6.913 5.858 4.335 19.801 7.147 25.191 2.812 5.39 4.57 7.85z" style="line-height:1.25;-inkscape-font-specification:'Rye, Normal';font-variant-ligatures:normal;font-variant-caps:normal;font-variant-numeric:normal;font-feature-settings:normal;text-align:start" id="path8809"/><path d="M1495.718 337.613q-5.39 3.75-12.303 3.75-6.913 0-10.076-3.164-3.046-3.28-3.046-6.21 0-3.866 1.288-5.624 2.578 1.992 6.562 1.992 7.498 0 9.725-7.264v-35.502q0-5.39-2.11-7.967-3.749-4.57-12.185-8.67 14.295-6.562 14.295-20.153V236.5q0-9.96-6.796-10.78-1.992-.234-5.038-.234-3.047 0-5.624 1.992-1.64-2.226-1.64-4.57 0-2.46 1.171-5.39 1.289-3.046 3.867-5.74 6.092-6.328 14.177-6.328 8.201 0 13.591 2.578 6.444-7.264 13.826-7.264 11.482 0 11.482 12.654v16.052q11.717-28.823 37.26-28.823 11.482 0 18.629 7.03 7.381 7.147 7.381 19.8v1.641q0 .82-.234 3.398-.234 2.46.117 5.038.469 2.578 1.406 4.218 1.289 2.46 4.804 3.867-.82 3.163-3.867 5.74-2.929 2.461-6.561 2.461h-2.226q-4.57 5.741-12.771 8.085-2.344.703-5.156.703-2.694 0-4.803-1.172-1.992-1.289-2.227-2.695 2.227-1.054 2.227-4.218v-.586q-.938.235-1.64.235h-1.172q-3.867 0-7.03-2.93-3.047-2.929-3.984-7.38 6.327.233 11.014-4.688 4.218-4.335 4.218-8.904 0-10.78-9.374-10.78-8.084 0-16.286 12.889-7.733 11.834-9.725 24.488v63.387q1.289 4.1 3.984 6.092 2.695 1.992 7.381 1.992 4.687 0 7.265-1.992 1.289 1.758 1.289 5.156 0 3.398-3.164 6.678-3.046 3.164-10.428 3.164-7.264 0-13.943-3.984-4.686 3.984-11.365 3.984-6.678 0-12.185-3.75zm10.076-55.537q.117-3.983.117-6.678.117-2.695.117-4.335v-3.164q0-1.757-.117-4.452 0-2.812-.117-6.21 0-3.515-.117-6.796-.703-12.185-2.695-15.583-1.875-3.515-3.866-4.804v7.616q0 19.684-.938 23.2-.82 3.397-2.812 5.155-1.874 1.64-5.624 2.929 7.03 2.46 7.968 5.975 1.406 5.624 1.406 25.308v7.616q5.39-3.515 6.092-14.294.586-7.616.586-11.483z" style="line-height:1.25;-inkscape-font-specification:'Rye, Normal';font-variant-ligatures:normal;font-variant-caps:normal;font-variant-numeric:normal;font-feature-settings:normal;text-align:start" id="path8811"/><path d="M1624.953 337.613q-5.39 3.75-12.303 3.75-6.913 0-10.076-3.164-3.046-3.28-3.046-6.21 0-3.866 1.288-5.624 2.578 1.992 6.562 1.992 7.498 0 9.725-7.264v-36.439q0-5.155-2.227-7.499-3.397-3.866-12.068-8.084 8.202-3.75 10.428-5.976 3.866-3.866 3.866-9.49v-17.106q0-9.96-6.795-10.78-1.992-.234-5.038-.234-3.047 0-5.624 1.992-1.64-2.226-1.64-4.57 0-2.46 1.171-5.39 1.289-3.046 3.75-5.74 6.21-6.328 14.294-6.328 8.201 0 13.591 2.578 6.444-7.264 13.123-7.264 6.678 0 9.256 3.163 2.578 3.047 2.578 9.49v11.014q6.092-10.896 16.637-17.223 10.545-6.444 22.38-6.444 11.833 0 18.98 3.163 7.265 3.047 11.951 8.788 9.14 11.365 9.14 33.04v7.734q0 5.624 2.46 8.084 3.632 3.75 11.834 7.499-8.788 4.335-11.014 6.561-3.28 3.632-3.28 8.788v36.673q2.225 7.264 9.724 7.264 3.984 0 6.561-1.992 1.29 1.758 1.29 5.156 0 3.398-3.164 6.678-3.047 3.164-9.49 3.164-6.445 0-11.718-3.632-4.686 3.632-11.013 3.632-6.21 0-11.131-3.515-5.155 3.515-11.014 3.515-5.858 0-9.256-2.93-3.398-2.929-3.398-8.435 0-2.578 1.758-4.101 2.695 2.109 5.39 2.109 5.155 0 7.38-5.741v-69.832q0-22.73-11.13-26.362-3.632-1.172-7.85-1.172t-7.85 1.758q-3.632 1.64-6.562 4.686-6.444 6.796-7.616 16.17v74.752q2.227 5.74 7.382 5.74 2.695 0 5.39-2.108 1.757 1.523 1.757 5.624 0 3.983-3.398 6.913-3.397 2.929-9.022 2.929-5.506 0-10.076-3.515-4.452 3.515-10.896 3.515-6.445 0-11.951-3.75zm83.07-29.643q5.86-2.226 6.445-15.349.703-13.122.703-24.722 0-11.6-.937-19.098-.938-7.616-2.695-11.834-1.758-4.335-4.218-6.21-2.343-1.991-5.155-3.397 4.452 10.545 5.155 19.215.703 8.67.703 16.755zm-72.994-25.894q.117-3.866.117-6.444.117-2.695.117-4.335v-3.28q0-1.758-.117-4.57 0-2.812-.117-6.21 0-3.398-.234-6.678-.352-8.085-1.055-11.131-1.406-6.796-5.39-9.374v7.616q0 19.684-.937 23.2-.82 3.397-2.812 5.155-1.874 1.757-5.624 3.046 7.03 2.46 7.968 5.858 1.406 5.624 1.406 25.308v7.616q5.39-3.515 6.21-14.294.468-7.616.468-11.483z" style="line-height:1.25;-inkscape-font-specification:'Rye, Normal';font-variant-ligatures:normal;font-variant-caps:normal;font-variant-numeric:normal;font-feature-settings:normal;text-align:start" id="path8813"/><path d="M1867.605 303.635q2.578-4.92 9.49-4.92 4.687 0 7.265 3.866 2.109 3.046 2.109 7.498 0 4.335-2.226 8.788-2.226 4.452-6.093 8.084-3.866 3.632-8.905 6.444-4.92 2.813-10.545 4.687-11.6 3.867-24.136 3.867-12.537 0-23.55-4.101-10.897-4.218-18.747-11.717-15.349-14.763-18.747-40.54-.82-5.74-2.695-8.201-3.515-4.335-11.6-8.32 10.194-4.569 13.006-14.645.82-2.812 1.29-5.624 2.928-20.621 20.855-35.15 17.34-14.06 38.782-14.06 22.262 0 38.548 15.7 16.872 16.17 16.872 39.72 0 .82-.117 1.64 0 .82.117 1.523.234 1.524 1.875 1.758 2.109 2.695 2.109 5.741 0 7.03-7.5 8.319-1.874.351-5.857.937l-66.082 10.545v11.248q0 13.592 8.201 21.559 7.733 7.616 19.567 7.616 12.537 0 20.153-5.156 7.147-4.92 7.147-12.888 0-1.875-.586-4.218zm-20.504-37.845v-32.806q0-7.733-3.046-11.366-5.39-6.21-10.663-6.21-5.272 0-8.787 1.64-3.515 1.524-6.093 4.922-5.39 7.147-5.39 22.262v27.065zm17.34-2.929v-3.632q0-21.793-3.632-26.363-1.64-1.991-3.632-2.929v34.096zm-70.417 45.11q1.64-1.29 1.64-2.93 0-2.578-1.054-6.561-4.804-18.395-4.804-25.543 0-7.264.469-11.248.469-4.1 1.289-8.201 1.406-7.968 3.046-14.06 1.055-3.984 1.055-5.39 0-2.812-1.64-4.1-4.922 5.858-7.5 15.7-2.577 9.842-4.217 17.34-.586 3.164-6.913 6.093 6.327 2.93 6.913 5.858 4.335 19.801 7.147 25.191 2.812 5.39 4.57 7.85z" style="line-height:1.25;-inkscape-font-specification:'Rye, Normal';font-variant-ligatures:normal;font-variant-caps:normal;font-variant-numeric:normal;font-feature-settings:normal;text-align:start" id="path8815"/><path d="M1930.407 337.613q-5.39 3.75-12.303 3.75-6.796 0-10.193-3.046-3.281-3.047-3.281-5.859 0-3.866 1.64-6.093 2.578 1.992 6.562 1.992 6.795 0 9.724-7.85V284.42q0-5.156-2.109-7.499-3.397-3.515-12.185-7.85 8.202-3.75 10.545-6.093 3.75-3.866 3.75-9.49v-66.2q0-13.357-10.897-13.357-3.984 0-6.561 1.992-1.64-2.226-1.64-4.57 0-2.46 1.17-4.686 1.29-2.226 3.867-4.1 5.507-3.984 13.943-3.984t13.123 1.054q6.444-8.084 14.529-8.084 11.716 0 11.716 12.654v89.28q0 5.625 2.46 8.085 3.633 3.75 11.835 7.499-8.788 4.335-11.014 6.561-3.28 3.632-3.28 8.788v36.087q2.811 7.85 9.724 7.85 3.984 0 6.561-1.992 1.64 2.227 1.64 5.624 0 3.281-3.397 6.328-3.28 3.046-9.96 3.046-6.678 0-12.419-3.75-4.804 3.75-11.482 3.75-6.562 0-12.068-3.75zm3.397-29.76q5.273-3.398 6.21-14.88.352-5.038.469-11.248.117-6.21.117-8.788.117-2.694.117-3.983v-10.545q0-4.335-.117-9.842v-11.483q-.351-31.049-1.172-34.564-1.64-7.381-5.624-9.959v39.485q0 24.254-.585 27.066-.47 2.695-.82 3.983-1.055 3.633-7.968 5.976 7.03 2.46 7.967 5.858 1.406 5.624 1.406 25.308z" style="line-height:1.25;-inkscape-font-specification:'Rye, Normal';font-variant-ligatures:normal;font-variant-caps:normal;font-variant-numeric:normal;font-feature-settings:normal;text-align:start" id="path8817"/></g><g id="g4762" transform="translate(-401.148 -11.873) scale(1.92062)"><path style="line-height:1.25;-inkscape-font-specification:'Rye, Normal';font-variant-ligatures:normal;font-variant-caps:normal;font-variant-numeric:normal;font-feature-settings:normal;text-align:start" d="M497.224-91.465c-.937 1.601-1.406 3.008-1.406 4.219 0 1.172.156 2.03.469 2.578a6.647 6.647 0 00-2.579 1.523c-.742.703-1.113 1.406-1.113 2.11 0 1.406.664 2.363 1.992 2.87.977-.898 2.461-1.347 4.454-1.347h.996c.351 0 .683.04.996.117 2.617 3.125 4.922 7.852 6.914 14.18 2.11 6.797 3.164 13.516 3.164 20.156 0 2.344-1.055 4.57-3.164 6.68a7.993 7.993 0 01-2.227 1.582c2.54 1.25 4.219 3.262 5.04 6.035.234.781.35 2.246.35 4.395 0 2.109-.292 4.941-.878 8.496-.547 3.554-1.29 6.875-2.227 9.96-1.953 6.524-4.218 11.231-6.797 14.122-.742.117-1.835.175-3.28.175-1.407 0-2.598-.449-3.575-1.347-1.172.469-1.758 1.25-1.758 2.344 0 2.148 1.133 3.613 3.399 4.394-.118.352-.176 1.055-.176 2.11 0 1.054.469 2.382 1.406 3.984 2.89 0 5.137-.684 6.738-2.05 1.25 1.054 2.364 1.581 3.34 1.581 2.149.078 3.633-.566 4.453-1.934-2.578-1.64-4.004-3.671-4.277-6.093 8.945-9.453 14.824-21.895 17.637-37.324.586-2.891 2.05-5.391 4.394-7.5.703-.586 1.407-1.036 2.11-1.348-2.383-1.211-4.258-3.262-5.625-6.152-.43-.899-.88-2.618-1.348-5.157-.469-2.539-1.29-5.566-2.461-9.082-1.172-3.515-2.52-6.777-4.043-9.785-2.734-5.547-6.289-10.664-10.664-15.351.313-1.915 1.328-3.79 3.047-5.625.43-.508.84-.88 1.23-1.114-.859-1.406-2.07-2.07-3.632-1.992-1.524.04-2.91.586-4.16 1.64-1.602-1.367-3.848-2.05-6.739-2.05zm15.984 33.988c1.474.298 3.61 3.705 4.15 6.727.722 3.602.583 4.477.692 5.992.1 1.224.094 3.948.094 4.967.032.976-.018 1.828-.018 2.465v1.718c0 .595.05 1.945.018 2.922-.006 3.037-.257 6.509-.647 9.266-.789 4.334-2.322 7.122-3.851 7.521l.75-3.578c1.697-8.098.648-11.471-.023-14.072-.341-1.255-1.368-2.356-3.32-3.248 1.04-.467 1.822-1 2.343-1.594.553-.637.812-1.603 1.172-2.803.448-1.399 1.136-8.29-.203-12.58z" id="path8824" font-style="normal" font-variant="normal" font-weight="400" font-stretch="normal" font-size="120" font-family="Rye" letter-spacing="0" word-spacing="0" writing-mode="lr-tb" text-anchor="start" fill="#000" fill-opacity="1" stroke="none"/><path d="M462.34-67.49c-1.281 0-2.307.898-2.691 2.051l-.64 3.46c0 .127-.13.128-.13.128a29.237 29.237 0 00-6.535 2.692c-.062.054-.207.064-.289.002l-2.916-1.797c-1.029-.635-2.435-.513-3.332.384l-4.228 4.229a2.72 2.72 0 00-.385 3.332l1.922 3.076v.13a29.237 29.237 0 00-2.692 6.534s.001.13-.127.13l-3.46.767c-1.282.256-2.178 1.41-2.178 2.691v5.897c0 1.281.896 2.433 2.177 2.689l3.461.64c.128 0 .127.13.127.13a29.237 29.237 0 002.692 6.535v.129l-1.922 3.076c-.64 1.153-.512 2.435.385 3.332l4.228 4.228a2.72 2.72 0 003.332.385l3.076-1.922h.13a29.236 29.236 0 006.534 2.692s.13-.001.13.127l.767 3.46c.256 1.282 1.41 2.178 2.691 2.178h6.024c1.281 0 2.307-.896 2.691-2.177l.77-3.461.127-.127a29.251 29.251 0 006.537-2.692c.035-.031.092-.035.127 0l3.076 1.922c1.025.64 2.563.512 3.332-.385l4.228-4.228a2.72 2.72 0 00.385-3.332l-1.922-3.076v-.13a29.236 29.236 0 002.692-6.534s-.001-.13.127-.13l3.46-.767c1.282-.256 2.051-1.41 2.051-2.691v-5.895c0-1.281-.897-2.435-2.05-2.691l-3.588-.77-.13-.129a29.236 29.236 0 00-2.69-6.535v-.129l1.923-3.074a2.72 2.72 0 00-.385-3.332l-4.23-4.23a2.72 2.72 0 00-3.332-.383l-3.074 1.922h-.13a29.237 29.237 0 00-6.534-2.692s-.13 0-.13-.129l-.769-3.459c-.256-1.281-1.41-2.05-2.691-2.05zm3.075 14.737c5.278 0 9.904 2.524 12.787 6.43l-10.375 5.99a4.28 4.28 0 00-2.412-.744 4.28 4.28 0 00-2.409.746l-10.35-5.975c2.885-3.894 7.497-6.447 12.759-6.447zm15.3 2.918c1.747.186 3.234 2.065 4.164 3.814 1.24 2.45 1.832 5.752 1.832 8.778 0 3.044-.421 5.625-1.382 8.689-.936 2.708-2.283 4.452-4.094 4.701l1.125-2.236c1.67-3.316 2.38-7.435 2.38-11.117 0-3.549-.66-6.196-2.654-10.315zm-34.113.074c.39.284.256.924.209 1.264-.042.307-.296 1-.547 1.879a61.29 61.29 0 00-1.127 4.656c-.167.905-.306 1.81-.418 2.715-.111.88-.166 2.12-.166 3.724 0 1.578.57 4.398 1.711 8.46.25.879.688 1.602.688 2.171 0 .362.04.686-.35.97-.417-.542-.96-1.409-1.627-2.599-.668-1.19-1.59-3.854-2.32-6.951-.272-1.262-1.236-1.587-1.7-1.871-.534-.327-.548-1.036-.548-1.574 0-.584.067-1.14.6-1.44.451-.254 1.47-.51 1.663-1.478.3-1.27.639-2.522 1.26-4.727.612-2.172 1.503-3.906 2.672-5.199zm33.451 6.656a16.021 16.021 0 011.254 6.244c0 8.086-6.182 14.838-14.035 15.772v-11.854a4.28 4.28 0 002.412-4.175zm-29.254.012l10.352 5.977a4.391 4.391 0 00-.016.32 4.28 4.28 0 002.424 3.85v11.857c-7.853-.934-14.035-7.686-14.035-15.772 0-2.207.456-4.314 1.275-6.232z" id="path8975" fill="#000" stroke-width="1.282"/><path style="line-height:1.25;-inkscape-font-specification:'Rye, Normal';font-variant-ligatures:normal;font-variant-caps:normal;font-variant-numeric:normal;font-feature-settings:normal;text-align:start" d="M433.607-91.465c-2.89 0-5.137.683-6.738 2.05-1.25-1.054-2.657-1.6-4.22-1.64-1.523-.078-2.714.586-3.573 1.992.39.235.8.606 1.23 1.114 1.719 1.835 2.735 3.71 3.047 5.625-4.375 4.687-7.93 9.804-10.664 15.351-1.523 3.008-2.871 6.27-4.043 9.785-1.172 3.516-1.992 6.543-2.461 9.082-.469 2.54-.918 4.258-1.348 5.157-1.367 2.89-3.242 4.94-5.625 6.152.704.312 1.407.762 2.11 1.348 2.344 2.109 3.808 4.609 4.394 7.5 2.813 15.43 8.692 27.87 17.637 37.324-.273 2.422-1.7 4.453-4.277 6.093.82 1.368 2.304 2.012 4.453 1.934.976 0 2.09-.527 3.34-1.582 1.601 1.367 3.847 2.05 6.738 2.05.937-1.6 1.406-2.929 1.406-3.984 0-1.054-.058-1.757-.176-2.109 2.266-.781 3.399-2.246 3.399-4.394 0-1.094-.586-1.875-1.758-2.344-.977.898-2.187 1.347-3.633 1.347-1.406 0-2.48-.058-3.222-.175-2.579-2.89-4.844-7.598-6.797-14.121-.938-3.086-1.7-6.407-2.285-9.961-.547-3.555-.82-6.387-.82-8.496 0-2.149.116-3.614.35-4.395.821-2.773 2.5-4.785 5.04-6.035a7.993 7.993 0 01-2.227-1.582c-2.11-2.11-3.164-4.336-3.164-6.68 0-6.64 1.055-13.36 3.164-20.156 1.992-6.328 4.297-11.055 6.914-14.18.313-.078.645-.117.996-.117h.997c1.992 0 3.476.45 4.453 1.348 1.328-.508 1.992-1.465 1.992-2.871 0-.704-.371-1.407-1.113-2.11a6.647 6.647 0 00-2.579-1.523c.313-.547.47-1.406.47-2.578 0-1.211-.47-2.618-1.407-4.22zm-19.719 33.467c.456.472.684 1.225.684 2.256 0 .515-.147 1.503-.44 2.962-.455 2.233-.895 4.81-1.318 7.729a105.848 105.848 0 00-.488 4.508c-.13 1.46-.196 3.521-.196 6.183 0 2.62.668 7.298 2.002 14.04.293 1.46.44 2.662.44 3.607 0 .601-.228 1.139-.684 1.611-.488-.902-1.123-2.341-1.904-4.316-.781-1.975-1.774-6.591-2.979-13.848-.162-1.073-1.123-2.147-2.88-3.22 1.757-1.074 2.718-2.189 2.88-3.348a310.696 310.696 0 011.758-9.533c.716-3.607 1.758-6.484 3.125-8.631z" id="path4847" font-style="normal" font-variant="normal" font-weight="400" font-stretch="normal" font-size="120" font-family="Rye" letter-spacing="0" word-spacing="0" writing-mode="lr-tb" text-anchor="start" fill-opacity="1" stroke="none" stroke-width="3.077"/></g></g></svg>