<?xml version="1.0" encoding="UTF-8"?>
<svg version="1.1" viewBox="0 0 1167.6 175.12" xmlns="http://www.w3.org/2000/svg" xmlns:cc="http://creativecommons.org/ns#" xmlns:dc="http://purl.org/dc/elements/1.1/" xmlns:rdf="http://www.w3.org/1999/02/22-rdf-syntax-ns#">
<metadata>
<rdf:RDF>
<cc:Work rdf:about="">
<dc:format>image/svg+xml</dc:format>
<dc:type rdf:resource="http://purl.org/dc/dcmitype/StillImage"/>
</cc:Work>
</rdf:RDF>
</metadata>
<g transform="matrix(1.6017 0 0 1.6017 -87.867 -76.948)">
<g transform="matrix(.41674 0 0 .41674 -41.207 -9.464)">
<path d="m672.86 327.89q-10.662 14.06-31.987 14.06-26.011 0-39.017-15.583-5.624-6.6785-7.733-14.88-1.1717-4.921-4.1008-7.4987-2.9292-2.6948-7.2643-4.8038 8.436-3.8665 12.068-14.529 3.8665-11.248 12.888-16.286 9.7248-5.2725 21.442-5.5068 11.717-0.3515 17.341-0.82016 5.624-0.46867 9.9592-1.5232 8.0845-1.8747 12.654-6.9128v-17.575q0-11.6-4.8038-16.989-4.6867-5.3897-14.412-5.3897-9.6077 0-14.294 3.6322-4.5695 3.515-4.5695 9.4905 0 9.139 9.3734 8.9047-1.8747 9.139-9.842 9.139-2.3433 0-4.5695-0.82017v0.3515q0 3.0463 2.812 3.8665-2.9292 4.4523-9.842 4.3352-6.9128-0.11717-10.779-7.3815-1.7575 0.46867-4.1008 0.46867-2.2262 0-5.0382-1.5232-2.6948-1.5232-4.3352-4.218 5.8583-3.515 7.1472-10.897 1.406-9.0218 14.412-18.278 15.7-11.131 40.071-11.131 40.423 0 49.327 24.839 2.9292 8.3188 2.9292 19.684v9.4905q0 5.7412 2.812 9.3733 2.9292 3.6322 9.842 5.9755-7.3815 3.3978-9.4905 6.0927-3.1635 4.1008-3.1635 9.3733v35.15q3.3978 8.7875 9.7248 8.7875 3.9837 0 6.5613-1.9918 1.6403 2.2262 1.6403 5.624 0 3.2807-3.3978 6.327-3.2807 3.0463-9.9592 3.0463-6.6785 0-12.42-3.7493-5.0382 3.7493-9.0218 3.7493-3.8665 0-6.7957-0.82017-2.812-0.703-5.2725-2.3433-5.5068-3.6322-6.7957-10.311zm7.3815-19.918q6.7957-2.6948 7.1472-25.894 0-4.921 0-11.248 0-6.327-0.11717-10.779 0-4.5695-0.11716-8.6703-0.46867-14.763-2.6948-17.575-2.2262-2.9292-4.218-3.8665zm-43.235-8.3188q0 4.921 1.0545 9.6077 1.0545 4.6867 3.1635 8.2017 4.6867 7.3815 13.24 7.3815 6.4442 0 10.662-5.2725 3.9837-5.1553 3.9837-13.24v-38.196q-7.4987 4.3352-19.215 5.9755-12.888 1.9918-12.888 25.542zm-17.575 26.363q1.1717-0.82017 1.1717-2.109 0-1.7575-1.6403-4.921-5.8583-10.779-5.8583-17.692t0.46867-9.9592q0.58583-3.0463 1.406-5.1553 0.93734-2.2262 1.9918-3.8665 1.1717-1.6403 1.9918-2.9292 1.5232-2.6948 1.5232-3.6322 0-1.0545-1.0545-1.7575-4.8038 2.2262-7.03 5.2725-3.9837 5.3897-5.8583 13.943-0.46867 2.4605-8.2017 5.9755 7.4987 3.3978 8.2017 5.9755 3.9837 13.943 12.888 20.856z" style="font-feature-settings:normal;font-variant-caps:normal;font-variant-ligatures:normal;font-variant-numeric:normal"/>
<path d="m850.95 341.36q-16.521 0-17.809-22.848-5.9755 10.779-16.169 17.106-10.076 6.327-21.793 6.327-11.6 0-18.864-3.1635-7.2644-3.1635-12.068-9.139-9.3734-11.717-9.3734-33.275v-7.2643q0-13.591-14.294-20.153 8.436-4.1008 10.779-6.9128 3.515-4.3352 3.515-9.7248v-15.818q0-9.9592-6.7957-10.779-1.9918-0.23433-5.0382-0.23433-3.0463 0-5.624 1.9918-1.6403-2.2262-1.6403-4.5695 0-2.4605 1.1717-5.3897 1.2888-3.0463 3.8665-5.7412 6.0927-6.327 14.177-6.327t15.232 2.6948q5.1553-7.3815 12.185-7.3815 12.068 0 12.068 12.654v76.276q0 22.262 10.311 26.714 3.2807 1.406 7.2643 1.406 4.1008 0 7.3815-1.6403 3.2807-1.7575 5.7412-4.6867 4.5695-5.7412 5.8583-15.7v-59.286q0-13.357-10.897-13.357-3.9837 0-6.5613 1.9918-1.6403-2.2262-1.6403-4.5695 0-2.4605 1.1717-5.0382 1.2888-2.6948 3.8665-4.921 5.7412-5.1553 13.943-5.1553 8.3188 0 15.466 2.6948 5.1553-7.3815 12.185-7.3815 12.068 0 12.068 12.654v38.899q0 5.3897 2.109 7.9673 3.7493 4.5695 12.185 8.6704-14.294 6.5613-14.294 20.153v30.229q2.2262 9.0218 9.7248 9.0218 3.9837 0 6.5613-1.9918 1.6403 2.2262 1.6403 5.624 0 3.2807-3.3978 6.327-3.2807 3.0463-10.428 3.0463-7.03 0-13.357-3.7493-4.6867 3.7493-10.428 3.7493zm-8.7875-33.393q6.7957-2.6948 7.1472-25.894 0-4.921 0-11.248 0-6.327-0.11717-10.779 0-4.5695-0.11717-8.6703-0.46866-14.763-2.6948-17.575-2.2262-2.9292-4.218-3.8665zm-70.066-39.017 0.3515-15.466q0-10.428-0.703-13.826-1.9918-8.9047-5.624-9.7248v7.6158q0 19.801-0.93733 23.316-0.82017 3.3978-2.812 5.1553-1.8747 1.6403-5.624 2.9292 7.03 2.4605 7.9673 5.9755 1.406 5.624 1.406 25.425v7.6158q3.515-0.82017 5.7412-10.428 0.58583-2.6948 0.58583-13.123z" style="font-feature-settings:normal;font-variant-caps:normal;font-variant-ligatures:normal;font-variant-numeric:normal"/>
<path d="m979.13 321.91q2.2262-2.3433 3.515-5.8583 1.2888-3.6322 1.2888-7.4987 0-3.9837-0.46866-7.2643 0.82016-1.7575 4.4523-2.6948 3.6322-1.0545 4.8038-1.0545 4.4523 0 7.1472 3.3978 2.6948 3.2807 2.6948 9.2562 0 5.8583-3.515 11.6-3.3978 5.7412-9.139 10.194-12.771 9.9592-29.76 9.9592-32.338 0-42.883-24.488-3.8665-9.0218-3.8665-22.613v-14.294q0-5.5068-12.068-11.6 12.068-6.9128 12.068-18.63v-13.826q0-13.357-10.897-13.357-3.9837 0-6.5613 1.9918-1.6403-2.2262-1.6403-4.5695 0-2.4605 0.82017-5.2725 0.93734-2.9292 3.1635-5.2725 5.624-6.0927 17.458-4.218v-3.7493q0-12.303 6.2098-21.676 5.5068-8.436 9.7248-8.436 4.3352 0 6.6785 2.9292 1.9918-9.2562 5.2725-13.357 3.2807-4.1008 9.3734-4.1008v48.859h38.079q0.93733 1.8747 0.93733 6.327 0 4.3352-3.3978 7.03-3.3978 2.5777-8.2017 2.5777h-27.417v79.322q0 20.387 9.2562 23.902 2.6948 0.93734 5.7412 0.93734 3.1635 0 5.9755-1.0545 2.9292-1.1717 5.1553-3.3978zm-54.483-13.943q5.5068-3.515 6.2098-14.646 0.46867-7.9673 0.46867-12.42 0.11717-4.4523 0.11717-7.1472 0.11716-2.812 0.11716-4.3352v-4.6867q0-3.3978-0.11716-8.6703 0-5.3897-0.11717-11.6 0-6.327-0.23433-12.068-0.3515-13.826-1.0545-16.872-1.406-6.7957-5.3897-9.3733v36.556q0 16.286-0.58583 17.224-0.46867 0.93734-0.82017 2.2262-1.0545 3.515-7.9673 5.8583 7.03 2.4605 7.9673 5.9755 1.406 5.624 1.406 26.363z" style="font-feature-settings:normal;font-variant-caps:normal;font-variant-ligatures:normal;font-variant-numeric:normal"/>
<path d="m1035.4 325.9q-7.3815-7.4987-11.717-17.809-4.218-10.311-5.1553-17.692-0.9374-7.3815-1.6404-9.4905-0.5858-2.109-2.109-3.9837-3.0463-3.8665-11.131-7.8502 10.194-4.5695 13.006-14.646 0.8202-2.812 1.2888-5.624 3.0464-20.973 20.27-35.033 17.224-14.177 40.188-14.177 23.902 0 41.126 14.294 16.755 13.943 19.801 34.916 1.0545 7.3815 3.1635 10.779 3.9837 6.2098 11.131 9.4905-7.9674 3.8665-10.311 6.7957-3.1635 4.1008-3.9837 9.7248-3.7493 27.651-19.215 42.063-15.466 14.294-41.243 14.294-27.651 0-43.469-16.052zm63.153-80.494q0-29.292-19.918-29.292-19.918 0-19.918 29.292v51.905q0 28.12 19.801 28.12 20.036 0 20.036-28.12zm11.248 62.567q5.8583-2.2262 6.4442-15.349 0.703-13.123 0.703-19.45 0-6.4442-0.1172-10.662 0-4.3352-0.1172-8.9047-0.4686-17.106-2.6948-19.918-2.2262-2.812-4.218-3.7493zm-70.183 0q1.6403-1.2888 1.6403-2.9292 0-2.5777-1.0545-6.5613-4.8038-18.395-4.8038-25.542 0-7.2643 0.4687-11.248 0.4686-4.1008 1.1716-8.2017 1.5232-7.9673 3.1635-14.06 1.0545-3.9837 1.0545-5.3897 0-2.812-1.6403-4.1008-4.921 5.8583-7.4987 15.7-2.5776 9.842-4.218 17.341-0.5858 3.1635-6.9128 6.0927 6.327 2.9292 6.9128 5.8583 4.3352 19.801 7.1472 25.191 2.812 5.3897 4.5695 7.8502z" style="font-feature-settings:normal;font-variant-caps:normal;font-variant-ligatures:normal;font-variant-numeric:normal"/>
<path d="m1191.6 337.61q-5.3897 3.7493-12.302 3.7493-6.7957 0-10.194-3.0463-3.2807-3.0463-3.2807-5.8583 0-3.8665 1.6404-6.0927 2.5776 1.9918 6.5613 1.9918 6.7957 0 9.7248-7.8502v-35.97q0-5.1553-2.109-7.4987-3.2806-3.6322-12.185-7.9674 8.2017-3.7493 10.428-5.9755 3.8665-3.8665 3.8665-9.4905v-66.316q0-13.357-10.896-13.357-3.9836 0-6.5613 1.9918-1.6403-2.2262-1.6403-4.5695 0-2.4605 1.1716-4.6867 1.2889-2.2262 3.8665-4.1008 5.5069-3.9837 13.943-3.9837t13.123 1.0545q6.4441-8.0845 14.529-8.0845 12.068 0 12.068 12.654v98.069l33.861-31.284q7.733-7.9674 7.733-11.482t-4.4523-3.515-8.3189 2.2262q-1.2888-2.109-1.2888-5.3897 0-3.3978 3.515-6.5613 3.515-3.1635 9.9592-3.1635t11.365 3.9837q4.5695-3.9837 9.9592-3.9837 5.3896 0 9.3733 3.1635 3.9837-3.1635 9.3733-3.1635 5.3897 0 8.9047 2.812 3.6322 2.812 3.6322 7.4987 0 4.3352-1.1717 5.9755-3.1635-3.1635-7.8502-3.1635-4.5695 0-7.4986 1.406-2.812 1.2888-6.2099 3.8665-3.3978 2.4605-7.4986 6.0927l-19.45 16.872 35.736 70.3q3.2807 7.03 5.7412 10.311 2.5777 3.2807 6.4442 3.2807 3.9837 0 6.5613-1.9918 1.6404 2.2262 1.6404 5.624 0 3.2807-3.3979 6.327-3.2806 3.0463-10.545 3.0463-7.2643 0-14.06-3.9837-5.5068 3.9837-12.185 3.9837-6.5614 0-11.482-3.515-4.5695 3.515-10.311 3.515-5.624 0-9.0218-2.6948-3.3979-2.812-3.3979-7.03 0-4.218 1.7575-5.7412 4.5696 3.515 9.1391 1.1717 1.6403-0.82017 2.9291-3.1635l-24.839-54.014-14.646 12.771v39.602q2.2262 5.7412 7.3815 5.7412 2.6949 0 5.3897-2.109 1.7575 1.5232 1.7575 5.8583 0 4.218-3.3978 6.9128-3.3979 2.6948-9.139 2.6948-5.7412 0-10.311-3.515-4.8039 3.515-11.365 3.515t-12.068-3.7493zm9.842-71.12 0.1172-15.583v-22.965q0-21.793-0.8202-25.425-1.6403-7.1472-5.9755-9.9592v39.485q0 24.254-0.5858 27.066-0.4687 2.6948-0.8202 3.9837-1.0545 3.6322-7.9673 5.9755 7.03 2.4605 7.9673 5.8583 1.406 5.624 1.406 25.308v7.6158q6.2099-3.9837 6.5614-21.09v-7.03q0.1171-3.515 0.1171-6.2098zm67.722 41.477q1.5232-1.9918 1.5232-5.3897 0-3.3978-0.5858-6.0927-0.4687-2.6948-1.2889-5.3897-1.5231-4.3352-4.4523-10.311l-11.131-24.136-5.2726 4.6867z" style="font-feature-settings:normal;font-variant-caps:normal;font-variant-ligatures:normal;font-variant-numeric:normal"/>
<path d="m1433.6 303.64q2.5776-4.921 9.4905-4.921 4.6866 0 7.2643 3.8665 2.109 3.0463 2.109 7.4987 0 4.3352-2.2262 8.7875-2.2261 4.4523-6.0926 8.0845t-8.9047 6.4442q-4.921 2.812-10.545 4.6867-11.6 3.8665-24.136 3.8665-12.537 0-23.55-4.1008-10.896-4.218-18.747-11.717-15.349-14.763-18.747-40.54-0.8201-5.7412-2.6948-8.2017-3.515-4.3352-11.6-8.3188 10.194-4.5695 13.006-14.646 0.8202-2.812 1.2888-5.624 2.9292-20.621 20.856-35.15 17.341-14.06 38.782-14.06 22.262 0 38.548 15.7 16.872 16.169 16.872 39.72 0 0.82017-0.1171 1.6403 0 0.82017 0.1171 1.5232 0.2344 1.5232 1.8747 1.7575 2.109 2.6948 2.109 5.7412 0 7.03-7.4987 8.3188-1.8747 0.3515-5.8583 0.93733l-66.082 10.545v11.248q0 13.591 8.2017 21.559 7.733 7.6158 19.567 7.6158 12.537 0 20.153-5.1553 7.1472-4.921 7.1472-12.888 0-1.8747-0.5858-4.218zm-20.504-37.845v-32.807q0-7.733-3.0464-11.365-5.3896-6.2098-10.662-6.2098t-8.7876 1.6403q-3.515 1.5232-6.0926 4.921-5.3897 7.1472-5.3897 22.262v27.066zm17.341-2.9292v-3.6322q0-21.793-3.6322-26.363-1.6403-1.9918-3.6322-2.9292v34.096zm-70.417 45.109q1.6404-1.2888 1.6404-2.9292 0-2.5777-1.0546-6.5613-4.8038-18.395-4.8038-25.542 0-7.2643 0.4687-11.248 0.4686-4.1008 1.2888-8.2017 1.406-7.9673 3.0463-14.06 1.0546-3.9837 1.0546-5.3897 0-2.812-1.6404-4.1008-4.921 5.8583-7.4987 15.7-2.5776 9.842-4.218 17.341-0.5858 3.1635-6.9128 6.0927 6.327 2.9292 6.9128 5.8583 4.3352 19.801 7.1472 25.191 2.812 5.3897 4.5695 7.8502z" style="font-feature-settings:normal;font-variant-caps:normal;font-variant-ligatures:normal;font-variant-numeric:normal"/>
<path d="m1495.7 337.61q-5.3897 3.7493-12.303 3.7493-6.9128 0-10.076-3.1635-3.0463-3.2807-3.0463-6.2098 0-3.8665 1.2888-5.624 2.5777 1.9918 6.5613 1.9918 7.4987 0 9.7249-7.2643v-35.502q0-5.3897-2.109-7.9673-3.7494-4.5695-12.185-8.6703 14.294-6.5613 14.294-20.153v-12.303q0-9.9592-6.7957-10.779-1.9918-0.23433-5.0382-0.23433-3.0463 0-5.624 1.9918-1.6403-2.2262-1.6403-4.5695 0-2.4605 1.1717-5.3897 1.2888-3.0463 3.8665-5.7412 6.0926-6.327 14.177-6.327 8.2017 0 13.591 2.5777 6.4442-7.2643 13.826-7.2643 11.482 0 11.482 12.654v16.052q11.717-28.823 37.259-28.823 11.482 0 18.63 7.03 7.3815 7.1472 7.3815 19.801v1.6403q0 0.82016-0.2343 3.3978-0.2344 2.4605 0.1171 5.0382 0.4687 2.5777 1.406 4.218 1.2889 2.4605 4.8039 3.8665-0.8202 3.1635-3.8665 5.7412-2.9292 2.4605-6.5614 2.4605h-2.2261q-4.5696 5.7412-12.771 8.0845-2.3434 0.703-5.1554 0.703-2.6948 0-4.8038-1.1717-1.9918-1.2888-2.2262-2.6948 2.2262-1.0545 2.2262-4.218v-0.58583q-0.9373 0.23433-1.6403 0.23433h-1.1717q-3.8665 0-7.03-2.9292-3.0464-2.9292-3.9837-7.3815 6.327 0.23434 11.014-4.6867 4.218-4.3352 4.218-8.9047 0-10.779-9.3733-10.779-8.0846 0-16.286 12.888-7.733 11.834-9.7249 24.488v63.387q1.2889 4.1008 3.9837 6.0927 2.6948 1.9918 7.3815 1.9918t7.2643-1.9918q1.2889 1.7575 1.2889 5.1553 0 3.3978-3.1635 6.6785-3.0464 3.1635-10.428 3.1635-7.2643 0-13.943-3.9837-4.6867 3.9837-11.365 3.9837t-12.185-3.7493zm10.076-55.537q0.1172-3.9837 0.1172-6.6785 0.1171-2.6948 0.1171-4.3352v-3.1635q0-1.7575-0.1171-4.4523 0-2.812-0.1172-6.2098 0-3.515-0.1172-6.7957-0.703-12.185-2.6948-15.583-1.8747-3.515-3.8665-4.8038v7.6158q0 19.684-0.9373 23.199-0.8202 3.3978-2.812 5.1553-1.8747 1.6403-5.6241 2.9292 7.0301 2.4605 7.9674 5.9755 1.406 5.624 1.406 25.308v7.6158q5.3897-3.515 6.0927-14.294 0.5858-7.6158 0.5858-11.482z" style="font-feature-settings:normal;font-variant-caps:normal;font-variant-ligatures:normal;font-variant-numeric:normal"/>
<path d="m1625 337.61q-5.3897 3.7493-12.302 3.7493-6.9129 0-10.076-3.1635-3.0463-3.2807-3.0463-6.2098 0-3.8665 1.2888-5.624 2.5777 1.9918 6.5614 1.9918 7.4986 0 9.7248-7.2643v-36.439q0-5.1553-2.2262-7.4987-3.3978-3.8665-12.068-8.0845 8.2016-3.7493 10.428-5.9755 3.8665-3.8665 3.8665-9.4905v-17.106q0-9.9592-6.7957-10.779-1.9918-0.23433-5.0381-0.23433-3.0464 0-5.624 1.9918-1.6404-2.2262-1.6404-4.5695 0-2.4605 1.1717-5.3897 1.2888-3.0463 3.7493-5.7412 6.2099-6.327 14.294-6.327 8.2016 0 13.591 2.5777 6.4442-7.2643 13.123-7.2643t9.2562 3.1635q2.5776 3.0463 2.5776 9.4905v11.014q6.0927-10.897 16.638-17.224 10.545-6.4442 22.379-6.4442 11.834 0 18.981 3.1635 7.2644 3.0463 11.951 8.7875 9.139 11.365 9.139 33.041v7.733q0 5.624 2.4605 8.0845 3.6322 3.7493 11.834 7.4987-8.7875 4.3352-11.014 6.5613-3.2807 3.6322-3.2807 8.7875v36.673q2.2262 7.2643 9.7249 7.2643 3.9836 0 6.5613-1.9918 1.2889 1.7575 1.2889 5.1553 0 3.3978-3.1636 6.6785-3.0463 3.1635-9.4905 3.1635-6.4441 0-11.717-3.6322-4.6867 3.6322-11.014 3.6322-6.2099 0-11.131-3.515-5.1553 3.515-11.014 3.515-5.8584 0-9.2562-2.9292-3.3979-2.9292-3.3979-8.436 0-2.5777 1.7575-4.1008 2.6949 2.109 5.3897 2.109 5.1554 0 7.3815-5.7412v-69.831q0-22.73-11.131-26.363-3.6322-1.1717-7.8502-1.1717t-7.8502 1.7575q-3.6321 1.6403-6.5613 4.6867-6.4442 6.7957-7.6159 16.169v74.752q2.2262 5.7412 7.3816 5.7412 2.6948 0 5.3896-2.109 1.7575 1.5232 1.7575 5.624 0 3.9837-3.3978 6.9128t-9.0219 2.9292q-5.5068 0-10.076-3.515-4.4523 3.515-10.896 3.515t-11.951-3.7493zm83.071-29.643q5.8584-2.2262 6.4442-15.349 0.703-13.123 0.703-24.722 0-11.6-0.9373-19.098-0.9374-7.6158-2.6949-11.834-1.7575-4.3352-4.218-6.2098-2.3433-1.9918-5.1553-3.3978 4.4523 10.545 5.1553 19.215t0.703 16.755zm-72.995-25.894q0.1172-3.8665 0.1172-6.4442 0.1172-2.6948 0.1172-4.3352 0-1.6403 0-3.2807 0-1.7575-0.1172-4.5695 0-2.812-0.1172-6.2098 0-3.3978-0.2343-6.6785-0.3515-8.0845-1.0545-11.131-1.406-6.7957-5.3897-9.3734v7.6158q0 19.684-0.9373 23.199-0.8202 3.3978-2.812 5.1553-1.8747 1.7575-5.624 3.0463 7.03 2.4605 7.9673 5.8583 1.406 5.624 1.406 25.308v7.6158q5.3897-3.515 6.2099-14.294 0.4686-7.6158 0.4686-11.482z" style="font-feature-settings:normal;font-variant-caps:normal;font-variant-ligatures:normal;font-variant-numeric:normal"/>
<path d="m1867.6 303.64q2.5777-4.921 9.4905-4.921 4.6867 0 7.2643 3.8665 2.109 3.0463 2.109 7.4987 0 4.3352-2.2261 8.7875-2.2262 4.4523-6.0927 8.0845t-8.9047 6.4442q-4.921 2.812-10.545 4.6867-11.6 3.8665-24.136 3.8665-12.537 0-23.55-4.1008-10.896-4.218-18.747-11.717-15.349-14.763-18.747-40.54-0.8201-5.7412-2.6948-8.2017-3.515-4.3352-11.6-8.3188 10.194-4.5695 13.006-14.646 0.8202-2.812 1.2888-5.624 2.9292-20.621 20.856-35.15 17.341-14.06 38.782-14.06 22.262 0 38.548 15.7 16.872 16.169 16.872 39.72 0 0.82017-0.1171 1.6403 0 0.82017 0.1171 1.5232 0.2344 1.5232 1.8747 1.7575 2.109 2.6948 2.109 5.7412 0 7.03-7.4987 8.3188-1.8746 0.3515-5.8583 0.93733l-66.082 10.545v11.248q0 13.591 8.2017 21.559 7.733 7.6158 19.567 7.6158 12.537 0 20.153-5.1553 7.1472-4.921 7.1472-12.888 0-1.8747-0.5858-4.218zm-20.504-37.845v-32.807q0-7.733-3.0463-11.365-5.3897-6.2098-10.662-6.2098t-8.7875 1.6403q-3.515 1.5232-6.0927 4.921-5.3897 7.1472-5.3897 22.262v27.066zm17.341-2.9292v-3.6322q0-21.793-3.6322-26.363-1.6403-1.9918-3.6322-2.9292v34.096zm-70.417 45.109q1.6404-1.2888 1.6404-2.9292 0-2.5777-1.0545-6.5613-4.8039-18.395-4.8039-25.542 0-7.2643 0.4687-11.248 0.4687-4.1008 1.2888-8.2017 1.406-7.9673 3.0464-14.06 1.0545-3.9837 1.0545-5.3897 0-2.812-1.6404-4.1008-4.921 5.8583-7.4986 15.7-2.5777 9.842-4.218 17.341-0.5859 3.1635-6.9129 6.0927 6.327 2.9292 6.9129 5.8583 4.3351 19.801 7.1471 25.191 2.812 5.3897 4.5695 7.8502z" style="font-feature-settings:normal;font-variant-caps:normal;font-variant-ligatures:normal;font-variant-numeric:normal"/>
<path d="m1930.4 337.61q-5.3897 3.7493-12.302 3.7493-6.7957 0-10.194-3.0463-3.2807-3.0463-3.2807-5.8583 0-3.8665 1.6403-6.0927 2.5777 1.9918 6.5614 1.9918 6.7957 0 9.7248-7.8502v-36.087q0-5.1553-2.109-7.4987-3.3978-3.515-12.185-7.8502 8.2016-3.7493 10.545-6.0927 3.7493-3.8665 3.7493-9.4905v-66.199q0-13.357-10.896-13.357-3.9837 0-6.5613 1.9918-1.6404-2.2262-1.6404-4.5695 0-2.4605 1.1717-4.6867 1.2888-2.2262 3.8665-4.1008 5.5068-3.9837 13.943-3.9837 8.436 0 13.123 1.0545 6.4442-8.0845 14.529-8.0845 11.717 0 11.717 12.654v89.281q0 5.624 2.4605 8.0845 3.6322 3.7493 11.834 7.4987-8.7875 4.3352-11.014 6.5613-3.2807 3.6322-3.2807 8.7875v36.087q2.812 7.8502 9.7248 7.8502 3.9837 0 6.5614-1.9918 1.6403 2.2262 1.6403 5.624 0 3.2807-3.3978 6.327-3.2807 3.0463-9.9592 3.0463t-12.42-3.7493q-4.8038 3.7493-11.482 3.7493-6.5614 0-12.068-3.7493zm3.3978-29.76q5.2725-3.3978 6.2099-14.88 0.3515-5.0382 0.4686-11.248 0.1172-6.2098 0.1172-8.7875 0.1172-2.6948 0.1172-3.9837v-10.545q0-4.3352-0.1172-9.842v-11.482q-0.3515-31.049-1.1717-34.564-1.6403-7.3815-5.624-9.9592v39.485q0 24.254-0.5858 27.066-0.4687 2.6948-0.8202 3.9837-1.0545 3.6322-7.9673 5.9755 7.03 2.4605 7.9673 5.8583 1.406 5.624 1.406 25.308z" style="font-feature-settings:normal;font-variant-caps:normal;font-variant-ligatures:normal;font-variant-numeric:normal"/>
</g>
<path d="m152.87 48.042c-0.9375 1.6016-1.4062 3.0078-1.4062 4.2188 0 1.1719 0.15625 2.0313 0.46875 2.5781-0.97656 0.3125-1.8359 0.82031-2.5781 1.5234s-1.1133 1.4062-1.1133 2.1094c0 1.4062 0.66406 2.3633 1.9922 2.8711 0.97656-0.89844 2.4609-1.3477 4.4531-1.3477h0.99609c0.35157 0 0.6836 0.03906 0.9961 0.11719 2.6172 3.125 4.9219 7.8516 6.9141 14.18 2.1094 6.7969 3.1641 13.516 3.1641 20.156 0 2.3438-1.0547 4.5703-3.1641 6.6797-0.66407 0.66407-1.4063 1.1914-2.2266 1.582 2.5391 1.25 4.2188 3.2617 5.0391 6.0352 0.23437 0.78124 0.35156 2.2461 0.35156 4.3945 0 2.1094-0.29296 4.9414-0.8789 8.4961-0.54688 3.5547-1.2891 6.875-2.2266 9.9609-1.9531 6.5234-4.2188 11.23-6.7969 14.121-0.74219 0.1172-1.8359 0.17578-3.2812 0.17578-1.4062 0-2.5977-0.44921-3.5742-1.3476-1.1719 0.46875-1.7578 1.25-1.7578 2.3438 0 2.1484 1.1328 3.6133 3.3984 4.3945-0.11718 0.35156-0.17578 1.0547-0.17578 2.1094s0.46875 2.3828 1.4062 3.9844c2.8906 0 5.1367-0.68359 6.7383-2.0508 1.25 1.0547 2.3633 1.582 3.3398 1.582 2.1484 0.0781 3.6328-0.56641 4.4531-1.9336-2.5781-1.6406-4.0039-3.6719-4.2773-6.0938 8.9453-9.4531 14.824-21.895 17.637-37.324 0.58593-2.8906 2.0508-5.3906 4.3945-7.5 0.70313-0.58594 1.4062-1.0352 2.1094-1.3477-2.3828-1.2109-4.2578-3.2617-5.625-6.1523-0.42968-0.89844-0.8789-2.6172-1.3476-5.1562-0.46875-2.5391-1.2891-5.5664-2.4609-9.082s-2.5195-6.7773-4.043-9.7852c-2.7344-5.5469-6.2891-10.664-10.664-15.352 0.3125-1.9141 1.3281-3.7891 3.0469-5.625 0.42968-0.50781 0.83984-0.87891 1.2305-1.1133-0.85937-1.4062-2.0703-2.0703-3.6328-1.9922-1.5234 0.03906-2.9102 0.58594-4.1602 1.6406-1.6016-1.3672-3.8477-2.0508-6.7383-2.0508zm15.984 33.988c1.4739 0.29794 3.6088 3.7051 4.1504 6.7266 0.72134 3.6025 0.5822 4.4776 0.69141 5.9922 0.099 1.2236 0.0937 3.9476 0.0937 4.9668 0.0325 0.97673-0.0176 1.8278-0.0176 2.4648v1.7188c0 0.59453 0.0501 1.9451 0.0176 2.9219-6e-3 3.0368-0.25735 6.5088-0.64649 9.2656-0.78928 4.3343-2.3229 7.1225-3.8516 7.5215l0.75-3.5781c1.6975-8.0981 0.64844-11.471-0.0234-14.072-0.34068-1.2549-1.3672-2.3562-3.3203-3.248 1.0417-0.46714 1.8229-0.99922 2.3438-1.5938 0.55338-0.637 0.81231-1.603 1.1719-2.8027 0.44791-1.399 1.1362-8.2907-0.20312-12.58z" style="font-feature-settings:normal;font-variant-caps:normal;font-variant-ligatures:normal;font-variant-numeric:normal"/>
<path d="m117.99 72.018c-1.2815 0-2.307 0.8974-2.6914 2.0508l-0.64062 3.459c0 0.12815-0.12891 0.12891-0.12891 0.12891-2.3068 0.64077-4.4847 1.538-6.5352 2.6914-0.0625 0.05469-0.20703 0.06441-0.28906 2e-3l-2.916-1.7969c-1.0292-0.63444-2.435-0.51231-3.332 0.38477l-4.2285 4.2285c-0.89708 0.89708-1.0255 2.3068-0.38476 3.332l1.9219 3.0762v0.12891c-1.1534 2.0505-2.0506 4.2284-2.6914 6.5352 0 0 0.0012 0.1289-0.12695 0.12891l-3.4609 0.76758c-1.2815 0.25631-2.1777 1.4099-2.1777 2.6914v5.8965c0 1.2815 0.8962 2.4331 2.1777 2.6894l3.4609 0.64062c0.12815 0 0.12696 0.12891 0.12695 0.12891 0.64077 2.3068 1.538 4.4847 2.6914 6.5352v0.1289l-1.9219 3.0762c-0.64077 1.1534-0.51231 2.435 0.38476 3.332l4.2285 4.2285c0.89708 0.89708 2.3068 1.0255 3.332 0.38477l3.0762-1.9219h0.1289c2.0505 1.1534 4.2284 2.0506 6.5352 2.6914 0 0 0.12891-1e-3 0.12891 0.12695l0.76757 3.4609c0.25631 1.2815 1.4099 2.1777 2.6914 2.1777h6.0234c1.2815 0 2.307-0.89619 2.6914-2.1777l0.76953-3.4609 0.12695-0.12695c2.3068-0.64076 4.4866-1.538 6.5371-2.6914 0.0352-0.0312 0.0918-0.0352 0.12695 0l3.0762 1.9219c1.0252 0.64077 2.5631 0.51231 3.332-0.38477l4.2285-4.2285c0.89708-0.89707 1.0255-2.3068 0.38477-3.332l-1.9219-3.0762v-0.1289c1.1534-2.0505 2.0506-4.2284 2.6914-6.5352 0 0-1e-3 -0.12891 0.12695-0.12891l3.4609-0.76757c1.2815-0.2563 2.0508-1.4099 2.0508-2.6914v-5.8945c0-1.2815-0.89739-2.4351-2.0508-2.6914l-3.5879-0.76953-0.12891-0.12891c-0.64077-2.3068-1.538-4.4847-2.6914-6.5352v-0.12891l1.9238-3.0742c0.64077-1.0252 0.51231-2.435-0.38476-3.332l-4.2305-4.2305c-0.89708-0.89708-2.3068-1.0236-3.332-0.38281l-3.0742 1.9219h-0.12891c-2.0505-1.1534-4.2284-2.0506-6.5352-2.6914 0 0-0.12891-7.52e-4 -0.12891-0.12891l-0.76953-3.459c-0.25631-1.2815-1.4099-2.0508-2.6914-2.0508zm3.0742 14.736c5.2786 0 9.9049 2.5239 12.787 6.4297l-10.375 5.9902c-0.71096-0.48487-1.5516-0.74419-2.4121-0.74414-0.85943 0.0013-1.6986 0.26128-2.4082 0.74609l-10.35-5.9746c2.8842-3.8943 7.4959-6.4473 12.758-6.4473zm15.301 2.918c1.7467 0.18618 3.2335 2.0652 4.1641 3.8145 1.2401 2.4504 1.832 5.7513 1.832 8.7773 0 3.0448-0.42169 5.6258-1.3828 8.6894-0.93541 2.7084-2.2821 4.4519-4.0938 4.7012l1.125-2.2363c1.6705-3.3158 2.3809-7.4352 2.3809-11.117 0-3.5484-0.66121-6.1958-2.6543-10.314zm-34.113 0.07422c0.3896 0.28451 0.25588 0.92417 0.20898 1.2637-0.0425 0.30746-0.29641 0.9995-0.54687 1.8789-0.38959 1.345-0.76519 2.8974-1.127 4.6562-0.16697 0.90527-0.30668 1.8096-0.41797 2.7148-0.1113 0.87941-0.16601 2.121-0.16601 3.7246 0 1.5778 0.56997 4.3982 1.7109 8.459 0.25046 0.8794 0.6875 1.6028 0.6875 2.1719 0 0.3621 0.04 0.6862-0.34961 0.97071-0.41744-0.54316-0.95909-1.4098-1.627-2.5996-0.66789-1.1898-1.5908-3.8541-2.3203-6.9512-0.27158-1.2622-1.2353-1.5875-1.6992-1.8711-0.53485-0.32702-0.54883-1.0358-0.54883-1.5742 0-0.5833 0.06772-1.1396 0.59961-1.4394 0.45189-0.25477 1.4712-0.51052 1.6641-1.4785 0.299-1.2704 0.63856-2.522 1.2598-4.7266 0.61223-2.1726 1.5031-3.906 2.6719-5.1992zm33.451 6.6562c0.80692 1.9122 1.2539 4.0219 1.2539 6.2441 0 8.0858-6.1824 14.838-14.035 15.771v-11.854c1.4806-0.71279 2.4225-2.2102 2.4238-3.8535 1.5e-4 -0.10753-4e-3 -0.21503-0.0117-0.32227zm-29.254 0.01172 10.352 5.9766c-9e-3 0.10654-0.0144 0.21339-0.0156 0.32032 3e-3 1.6419 0.94448 3.1374 2.4238 3.8496v11.857c-7.8528-0.93347-14.035-7.6856-14.035-15.771 0-2.2071 0.45652-4.3142 1.2754-6.2324z" stroke-width="1.2815"/>
<path d="m89.254 48.042c-2.8906 0-5.1367 0.68359-6.7383 2.0508-1.25-1.0547-2.6562-1.6016-4.2188-1.6406-1.5234-0.07813-2.7148 0.58594-3.5742 1.9922 0.39062 0.23438 0.80078 0.60547 1.2305 1.1133 1.7188 1.8359 2.7344 3.7109 3.0469 5.625-4.375 4.6875-7.9297 9.8047-10.664 15.352-1.5234 3.0078-2.8711 6.2695-4.043 9.7852s-1.9922 6.543-2.4609 9.082-0.91797 4.2578-1.3477 5.1562c-1.3672 2.8906-3.2422 4.9414-5.625 6.1523 0.70312 0.3125 1.4062 0.76173 2.1094 1.3477 2.3438 2.1094 3.8086 4.6094 4.3945 7.5 2.8125 15.43 8.6914 27.871 17.637 37.324-0.27344 2.4219-1.6992 4.4531-4.2773 6.0938 0.82031 1.3672 2.3047 2.0117 4.4531 1.9336 0.97656 0 2.0898-0.52734 3.3398-1.582 1.6016 1.3672 3.8477 2.0508 6.7383 2.0508 0.9375-1.6016 1.4062-2.9297 1.4062-3.9844s-0.05859-1.7578-0.17578-2.1094c2.2656-0.78125 3.3984-2.2461 3.3984-4.3945 0-1.0938-0.58594-1.875-1.7578-2.3438-0.97656 0.89843-2.1875 1.3477-3.6328 1.3477-1.4063 0-2.4805-0.0586-3.2227-0.17578-2.5781-2.8906-4.8438-7.5977-6.7969-14.121-0.9375-3.0859-1.6992-6.4062-2.2852-9.9609-0.54688-3.5547-0.82031-6.3867-0.82031-8.4961 0-2.1484 0.11719-3.6133 0.35156-4.3945 0.82031-2.7734 2.5-4.7852 5.0391-6.0352-0.82031-0.39063-1.5625-0.91797-2.2266-1.582-2.1094-2.1094-3.1641-4.3359-3.1641-6.6797 0-6.6406 1.0547-13.359 3.1641-20.156 1.9922-6.3281 4.2969-11.055 6.9141-14.18 0.3125-0.07813 0.64453-0.11719 0.99609-0.11719h0.99609c1.9922 0 3.4766 0.44922 4.4531 1.3477 1.3281-0.50781 1.9922-1.4648 1.9922-2.8711 0-0.70312-0.37109-1.4062-1.1133-2.1094-0.74219-0.70313-1.6016-1.2109-2.5781-1.5234 0.3125-0.54688 0.46875-1.4062 0.46875-2.5781 0-1.2109-0.46875-2.6172-1.4062-4.2188zm-19.719 33.467c0.45572 0.47231 0.68359 1.2254 0.68359 2.2559 0 0.51525-0.14648 1.503-0.43945 2.9629-0.45572 2.2327-0.89517 4.8088-1.3184 7.7285-0.19531 1.5028-0.35809 3.005-0.48828 4.5078-0.13022 1.4599-0.19531 3.5215-0.19531 6.1836 0 2.6192 0.66733 7.2979 2.002 14.039 0.29297 1.4599 0.43945 2.6628 0.43945 3.6074 0 0.60112-0.22787 1.139-0.68359 1.6113-0.48828-0.90169-1.123-2.3413-1.9043-4.3164-0.78125-1.9751-1.7741-6.5912-2.9785-13.848-0.16275-1.0734-1.123-2.1473-2.8809-3.2207 1.7578-1.0734 2.7181-2.1883 2.8809-3.3477 0.45575-2.748 1.0417-5.9265 1.7578-9.5332 0.71615-3.6068 1.7578-6.484 3.125-8.6309z" style="font-feature-settings:normal;font-variant-caps:normal;font-variant-ligatures:normal;font-variant-numeric:normal"/>
</g>
<style type="text/css">.st0{fill-rule:evenodd;clip-rule:evenodd;}</style>
</svg>
