<svg xmlns="http://www.w3.org/2000/svg" width="212.072" height="175.121" version="1.1" id="SVGRoot"><g id="g9219" transform="matrix(1.60168 0 0 1.60168 -87.867 -76.948)"><path id="path8824" d="M152.871 48.042c-.937 1.602-1.406 3.008-1.406 4.219 0 1.172.156 2.031.469 2.578a6.647 6.647 0 00-2.579 1.523c-.742.703-1.113 1.407-1.113 2.11 0 1.406.664 2.363 1.992 2.87.977-.898 2.461-1.347 4.453-1.347h.997c.351 0 .683.04.996.117 2.617 3.125 4.922 7.852 6.914 14.18 2.11 6.797 3.164 13.516 3.164 20.156 0 2.344-1.055 4.57-3.164 6.68a7.993 7.993 0 01-2.227 1.582c2.54 1.25 4.219 3.262 5.04 6.035.234.781.35 2.246.35 4.395 0 2.109-.292 4.941-.878 8.496-.547 3.554-1.29 6.875-2.227 9.96-1.953 6.524-4.218 11.231-6.797 14.122-.742.117-1.835.176-3.28.176-1.407 0-2.598-.45-3.575-1.348-1.172.469-1.758 1.25-1.758 2.344 0 2.148 1.133 3.613 3.399 4.394-.118.352-.176 1.055-.176 2.11 0 1.054.469 2.382 1.406 3.984 2.89 0 5.137-.684 6.738-2.05 1.25 1.054 2.364 1.581 3.34 1.581 2.149.078 3.633-.566 4.453-1.933-2.578-1.641-4.004-3.672-4.277-6.094 8.945-9.453 14.824-21.895 17.637-37.324.586-2.891 2.05-5.391 4.394-7.5.703-.586 1.407-1.036 2.11-1.348-2.383-1.21-4.258-3.262-5.625-6.152-.43-.899-.88-2.618-1.348-5.157-.469-2.539-1.29-5.566-2.461-9.082-1.172-3.515-2.52-6.777-4.043-9.785-2.734-5.547-6.289-10.664-10.664-15.351.313-1.914 1.328-3.79 3.047-5.625.43-.508.84-.88 1.23-1.114-.859-1.406-2.07-2.07-3.632-1.992-1.524.04-2.91.586-4.16 1.64-1.602-1.366-3.848-2.05-6.739-2.05zm15.984 33.988c1.474.298 3.61 3.705 4.15 6.727.722 3.602.583 4.477.692 5.992.1 1.224.094 3.948.094 4.967.032.977-.018 1.828-.018 2.465v1.718c0 .595.05 1.946.018 2.922-.006 3.037-.257 6.51-.647 9.266-.789 4.334-2.322 7.122-3.851 7.521l.75-3.578c1.697-8.098.648-11.471-.023-14.072-.341-1.255-1.368-2.356-3.32-3.248 1.04-.467 1.822-1 2.343-1.594.553-.637.812-1.603 1.172-2.803.448-1.399 1.136-8.29-.203-12.58z" style="line-height:1.25;-inkscape-font-specification:'Rye, Normal';font-variant-ligatures:normal;font-variant-caps:normal;font-variant-numeric:normal;font-feature-settings:normal;text-align:start" font-style="normal" font-variant="normal" font-weight="400" font-stretch="normal" font-size="120" font-family="Rye" letter-spacing="0" word-spacing="0" writing-mode="lr-tb" text-anchor="start" fill="#000" fill-opacity="1" stroke="none"/><path id="path8975" d="M117.987 72.018c-1.281 0-2.307.897-2.691 2.05l-.64 3.46c0 .127-.13.128-.13.128a29.237 29.237 0 00-6.535 2.692c-.062.054-.207.064-.289.002l-2.916-1.797c-1.029-.635-2.435-.513-3.332.385l-4.228 4.228a2.72 2.72 0 00-.385 3.332l1.922 3.076v.13a29.237 29.237 0 00-2.692 6.534s.001.13-.127.13l-3.46.767c-1.282.256-2.178 1.41-2.178 2.691v5.897c0 1.281.896 2.433 2.177 2.69l3.461.64c.128 0 .127.129.127.129a29.237 29.237 0 002.692 6.535v.129l-1.922 3.076c-.64 1.153-.512 2.435.385 3.332l4.228 4.228a2.72 2.72 0 003.332.385l3.076-1.922h.13a29.236 29.236 0 006.534 2.692s.13-.001.13.127l.767 3.46c.256 1.282 1.41 2.178 2.691 2.178h6.024c1.281 0 2.307-.896 2.691-2.177l.77-3.461.127-.127a29.251 29.251 0 006.537-2.692c.035-.03.091-.035.127 0l3.076 1.922c1.025.641 2.563.513 3.332-.385l4.228-4.228a2.72 2.72 0 00.385-3.332l-1.922-3.076v-.13a29.236 29.236 0 002.692-6.534s-.001-.13.127-.13l3.46-.767c1.282-.256 2.051-1.41 2.051-2.691v-5.895c0-1.281-.897-2.435-2.05-2.691l-3.588-.77-.13-.129a29.236 29.236 0 00-2.69-6.535v-.129l1.923-3.074a2.72 2.72 0 00-.385-3.332l-4.23-4.23a2.72 2.72 0 00-3.332-.383l-3.074 1.922h-.13a29.237 29.237 0 00-6.534-2.692s-.13 0-.13-.129l-.769-3.459c-.256-1.281-1.41-2.05-2.691-2.05zm3.075 14.736c5.278 0 9.904 2.524 12.787 6.43l-10.375 5.99a4.28 4.28 0 00-2.412-.744 4.28 4.28 0 00-2.409.746l-10.35-5.975c2.885-3.894 7.497-6.447 12.759-6.447zm15.3 2.918c1.747.186 3.234 2.065 4.164 3.814 1.24 2.45 1.832 5.752 1.832 8.778 0 3.044-.421 5.625-1.382 8.69-.936 2.708-2.283 4.451-4.094 4.7l1.125-2.236c1.67-3.316 2.38-7.435 2.38-11.117 0-3.549-.66-6.196-2.654-10.315zm-34.113.074c.39.285.256.924.209 1.264-.042.307-.296 1-.547 1.879a61.29 61.29 0 00-1.127 4.656c-.167.905-.307 1.81-.418 2.715-.111.88-.166 2.12-.166 3.724 0 1.578.57 4.399 1.711 8.46.25.879.688 1.602.688 2.171 0 .362.04.686-.35.97-.417-.542-.96-1.409-1.627-2.599-.668-1.19-1.59-3.854-2.32-6.95-.272-1.263-1.236-1.588-1.7-1.872-.534-.327-.548-1.036-.548-1.574 0-.583.067-1.14.6-1.44.451-.254 1.47-.51 1.663-1.478.3-1.27.639-2.522 1.26-4.727.612-2.172 1.503-3.906 2.672-5.199zm33.451 6.656a16.021 16.021 0 011.254 6.244c0 8.086-6.182 14.838-14.035 15.772v-11.854a4.28 4.28 0 002.412-4.175zm-29.254.012l10.352 5.977a4.391 4.391 0 00-.016.32 4.28 4.28 0 002.424 3.85v11.857c-7.853-.934-14.035-7.686-14.035-15.772 0-2.207.456-4.314 1.275-6.232z" fill="#000" stroke-width="1.282"/><path id="path4847" d="M89.254 48.042c-2.89 0-5.137.684-6.738 2.05-1.25-1.054-2.657-1.6-4.22-1.64-1.523-.078-2.714.586-3.573 1.992.39.235.8.606 1.23 1.114 1.719 1.836 2.734 3.71 3.047 5.625-4.375 4.687-7.93 9.804-10.664 15.351-1.523 3.008-2.871 6.27-4.043 9.785-1.172 3.516-1.992 6.543-2.461 9.082-.469 2.54-.918 4.258-1.348 5.157-1.367 2.89-3.242 4.941-5.625 6.152.703.312 1.407.762 2.11 1.348 2.343 2.109 3.808 4.609 4.394 7.5 2.813 15.43 8.692 27.87 17.637 37.324-.273 2.422-1.7 4.453-4.277 6.094.82 1.367 2.304 2.011 4.453 1.933.976 0 2.09-.527 3.34-1.582 1.601 1.367 3.847 2.05 6.738 2.05.937-1.6 1.406-2.929 1.406-3.983 0-1.055-.058-1.758-.176-2.11 2.266-.781 3.399-2.246 3.399-4.394 0-1.094-.586-1.875-1.758-2.344-.977.898-2.188 1.348-3.633 1.348-1.406 0-2.48-.059-3.222-.176-2.579-2.89-4.844-7.598-6.797-14.121-.938-3.086-1.7-6.407-2.285-9.961-.547-3.555-.82-6.387-.82-8.496 0-2.149.116-3.614.35-4.395.821-2.773 2.5-4.785 5.04-6.035a7.993 7.993 0 01-2.227-1.582c-2.11-2.11-3.164-4.336-3.164-6.68 0-6.64 1.055-13.36 3.164-20.156 1.992-6.328 4.297-11.055 6.914-14.18.313-.078.645-.117.996-.117h.996c1.993 0 3.477.45 4.454 1.348 1.328-.508 1.992-1.465 1.992-2.871 0-.703-.371-1.407-1.113-2.11a6.647 6.647 0 00-2.579-1.523c.313-.547.47-1.406.47-2.578 0-1.211-.47-2.617-1.407-4.219zM69.535 81.509c.456.472.684 1.225.684 2.256 0 .515-.147 1.503-.44 2.963-.455 2.232-.895 4.808-1.318 7.728a105.86 105.86 0 00-.488 4.508c-.13 1.46-.196 3.521-.196 6.183 0 2.62.668 7.298 2.002 14.04.293 1.46.44 2.662.44 3.607 0 .601-.228 1.139-.684 1.611-.488-.901-1.123-2.341-1.904-4.316-.781-1.975-1.774-6.591-2.979-13.848-.162-1.073-1.123-2.147-2.88-3.22 1.757-1.074 2.718-2.189 2.88-3.348a310.697 310.697 0 011.758-9.533c.716-3.607 1.758-6.484 3.125-8.631z" style="line-height:1.25;-inkscape-font-specification:'Rye, Normal';font-variant-ligatures:normal;font-variant-caps:normal;font-variant-numeric:normal;font-feature-settings:normal;text-align:start" font-style="normal" font-variant="normal" font-weight="400" font-stretch="normal" font-size="120" font-family="Rye" letter-spacing="0" word-spacing="0" writing-mode="lr-tb" text-anchor="start" fill-opacity="1" stroke="none" stroke-width="3.077"/></g></svg>